<svg xmlns="http://www.w3.org/2000/svg" viewBox="0 0 213.95 25.88"><defs><style>.cls-1{fill:#fff;}</style></defs><title>activcopy</title><g id="id" data-name="data-name"><g id="id-2" data-name="data-name-2"><path class="cls-1" d="M17.39,21.17H8L6.44,25.63H0L9.14.36h7.13l9.15,25.27H18.9ZM15.8,16.42,12.67,7.16,9.58,16.42Z"/><path class="cls-1" d="M28.8,6.28a11.62,11.62,0,0,1,4.52-4.57A13.13,13.13,0,0,1,39.89.07a12.51,12.51,0,0,1,7.7,2.38,11.37,11.37,0,0,1,4.29,6.48H45.11A5.48,5.48,0,0,0,43,6.52a6,6,0,0,0-3.15-.83,5.87,5.87,0,0,0-4.61,2A7.64,7.64,0,0,0,33.44,13a7.64,7.64,0,0,0,1.77,5.29,5.87,5.87,0,0,0,4.61,2A6,6,0,0,0,43,19.4,5.48,5.48,0,0,0,45.11,17h6.77a11.29,11.29,0,0,1-4.29,6.46,12.56,12.56,0,0,1-7.7,2.36,13,13,0,0,1-6.57-1.64,11.63,11.63,0,0,1-4.52-4.55A13.46,13.46,0,0,1,27.18,13,13.59,13.59,0,0,1,28.8,6.28Z"/><path class="cls-1" d="M73.87.36V5.29H67.18V25.63H61V5.29h-6.7V.36Z"/><path class="cls-1" d="M83.16.36V25.63H77V.36Z"/><path class="cls-1" d="M111.38.36l-9,25.27h-7.7L85.75.36H92.3l6.27,19.08L104.87.36Z"/><path class="cls-1" d="M114.55,6.28a11.62,11.62,0,0,1,4.52-4.57A13.13,13.13,0,0,1,125.64.07a12.51,12.51,0,0,1,7.7,2.38,11.37,11.37,0,0,1,4.29,6.48h-6.77a5.48,5.48,0,0,0-2.14-2.41,6,6,0,0,0-3.15-.83,5.87,5.87,0,0,0-4.61,2A7.63,7.63,0,0,0,119.2,13,7.63,7.63,0,0,0,121,18.25a5.87,5.87,0,0,0,4.61,2,6,6,0,0,0,3.15-.83A5.48,5.48,0,0,0,130.86,17h6.77a11.29,11.29,0,0,1-4.29,6.46,12.56,12.56,0,0,1-7.7,2.36,13,13,0,0,1-6.57-1.64,11.63,11.63,0,0,1-4.52-4.55A13.46,13.46,0,0,1,112.93,13,13.59,13.59,0,0,1,114.55,6.28Z"/><path class="cls-1" d="M146.86,24.23a12.49,12.49,0,0,1-4.72-4.63,13,13,0,0,1-1.74-6.68,12.88,12.88,0,0,1,1.74-6.66,12.48,12.48,0,0,1,4.72-4.6,13.69,13.69,0,0,1,13.07,0,12.17,12.17,0,0,1,4.68,4.6,13.05,13.05,0,0,1,1.71,6.66,13,13,0,0,1-1.73,6.68,12.31,12.31,0,0,1-4.68,4.63,13.73,13.73,0,0,1-13,0Zm11.38-6a7.65,7.65,0,0,0,1.81-5.33,7.63,7.63,0,0,0-1.81-5.34,6.93,6.93,0,0,0-9.72,0,7.59,7.59,0,0,0-1.82,5.36,7.6,7.6,0,0,0,1.82,5.35,6.88,6.88,0,0,0,9.72,0Z"/><path class="cls-1" d="M188,12.51a7.46,7.46,0,0,1-3.1,2.93,10.82,10.82,0,0,1-5.18,1.12h-3.82v9.07h-6.16V.36h10a11.43,11.43,0,0,1,5.11,1A7.25,7.25,0,0,1,188,4.28a8.36,8.36,0,0,1,1,4.22A8.14,8.14,0,0,1,188,12.51Zm-6.12-1.67a3.13,3.13,0,0,0,.86-2.34,3.1,3.1,0,0,0-.86-2.34,3.66,3.66,0,0,0-2.63-.83h-3.35v6.33h3.35A3.7,3.7,0,0,0,181.91,10.84Z"/><path class="cls-1" d="M214,.36,205.2,17.28v8.35H199V17.28L190.29.36h7l4.89,10.58L207,.36Z"/></g></g></svg>