<svg width="75" height="43" viewBox="0 0 75 43" fill="none" xmlns="http://www.w3.org/2000/svg">
<path d="M11.0733 1.09375C14.9927 1.09375 18.4656 3.01554 20.5433 6.3518L17.9569 8.16396C16.2269 5.55858 13.9109 4.25589 11.0712 4.25589C6.64529 4.25589 3.48792 7.59215 3.48792 12.1989C3.48792 16.8056 6.70754 20.1418 11.1506 20.1418C13.6018 20.1418 15.7482 19.1594 17.3709 17.3129C17.841 16.7776 18.6394 16.6809 19.2254 17.0893L20.6227 18.061C18.5922 21.365 15.1022 23.304 11.1528 23.304C4.9024 23.3061 0 18.5081 0 12.1989C0 5.88962 4.83801 1.09375 11.0733 1.09375Z" fill="white"/>
<path d="M22.2839 15.099C22.2839 10.6341 25.7418 7.15601 30.3738 7.15601C35.0057 7.15601 38.4636 10.6363 38.4636 15.099C38.4636 19.5616 35.0057 23.0419 30.3738 23.0419C25.7418 23.0419 22.2839 19.5616 22.2839 15.099ZM30.3738 20.0883C33.2457 20.0883 35.3234 17.9107 35.3234 15.099C35.3234 12.2872 33.2457 10.1096 30.3738 10.1096C27.5019 10.1096 25.4241 12.2872 25.4241 15.099C25.4241 17.9107 27.5019 20.0883 30.3738 20.0883Z" fill="white"/>
<path d="M48.1289 7.1536C50.7153 7.1536 52.4282 8.10805 53.555 9.55261V0.354248H56.6952V22.7235H53.555V20.6427C52.4282 22.0894 50.7153 23.0417 48.1289 23.0417C43.7975 23.0417 40.4834 19.7054 40.4834 15.0192C40.4834 10.3329 43.7996 7.1536 48.1289 7.1536ZM43.6236 15.0192C43.6236 17.8309 45.5747 20.2149 48.5088 20.2149C51.443 20.2149 53.5379 17.8309 53.5379 15.0192C53.5379 12.2074 51.4279 9.98254 48.5088 9.98254C45.5897 9.98254 43.6236 12.2074 43.6236 15.0192Z" fill="white"/>
<path d="M67.6701 7.15356C72.1131 7.15356 75.0001 10.4576 75.0001 14.5419C75.0001 15.0191 74.9679 15.5114 74.8734 16.0037H63.0553C63.1991 18.2909 65.1502 20.088 67.7838 20.088C69.6877 20.088 71.2116 19.2776 72.3535 17.4826L74.6695 19.1658C73.2572 21.7089 70.4819 23.0416 67.7838 23.0416C63.1841 23.0416 59.8035 19.6409 59.8035 15.1137C59.8035 10.5866 63.0553 7.15356 67.6722 7.15356H67.6701ZM71.8105 13.652C71.6195 11.5066 69.8272 9.99755 67.6379 9.99755C65.3069 9.99755 63.5296 11.5066 63.1326 13.652H71.8105Z" fill="white"/>
<path d="M54.111 29.2198L54.4609 28.1343L56.6781 28.9705L56.5751 26.5349H57.7106L57.6075 28.9705L59.8334 28.1343L60.1832 29.2198L57.9059 29.8604V29.8776L59.4663 31.851L58.5541 32.5174L57.1461 30.3978L55.738 32.5174L54.8172 31.851L56.3862 29.8776L56.3776 29.8604L54.1089 29.2198H54.111Z" fill="white"/>
<path d="M60.9214 41.9673H59.479L66.1758 25.488H67.6268L60.9214 41.9673Z" fill="white"/>
<path d="M66.2102 41.9673H64.7678L71.4646 25.488H72.9156L66.2102 41.9673Z" fill="white"/>
<path d="M28.7361 41.7437V25.9932H31.8763V41.7437H28.7361Z" fill="white"/>
<path d="M23.6621 41.7266C23.1384 41.7266 22.6662 41.4063 22.473 40.9183L17.4891 28.4568C17.3281 28.0311 16.9525 27.7302 16.4695 27.7302C15.9329 27.7302 15.5573 28.1064 15.5573 28.7061V38.6569C15.5573 40.8817 14.2158 42.3543 11.5328 42.3543C9.12021 42.3543 7.96544 41.1548 7.27 39.2287L1.66357 25.1828H5.04417L10.4617 38.7815C10.6506 39.2072 10.9726 39.4823 11.4555 39.4823C11.9921 39.4823 12.3935 39.1083 12.3935 38.5322V28.5578C12.3935 26.3565 13.735 24.884 16.388 24.884C18.8027 24.884 19.9832 26.0814 20.6808 28.0096L26.1777 41.733L23.6643 41.7287L23.6621 41.7266Z" fill="white"/>
<path d="M35.3601 41.7093V32.3734C35.3601 30.8815 35.6949 29.5767 36.3625 28.4567C37.03 27.3389 37.9551 26.4661 39.1399 25.8406C40.3248 25.215 41.6706 24.9033 43.1816 24.9033C44.6927 24.9033 46.0664 25.215 47.2383 25.8406C48.4103 26.4661 49.3311 27.3367 49.9986 28.4567C50.6662 29.5745 51.001 30.8815 51.001 32.3734V41.7093H47.9789V32.4078C47.9789 31.3996 47.7535 30.5268 47.3049 29.7916C46.8563 29.0564 46.2639 28.4911 45.5298 28.0977C44.7957 27.7022 44.0123 27.5044 43.1816 27.5044C42.351 27.5044 41.5654 27.7022 40.8313 28.0977C40.0972 28.4932 39.507 29.0564 39.0562 29.7916C38.6076 30.5268 38.3823 31.3996 38.3823 32.4078V41.7093H35.3601Z" fill="white"/>
</svg>
